<?xml version="1.0" encoding="UTF-8" standalone="no"?>
<svg xmlns="http://www.w3.org/2000/svg" width="100%" height="100%" baseProfile="tiny" version="1.2">
 <line x2="457" y1="1672" stroke="#191928" x1="456" y2="1671"/>
 <line x2="458" y1="1672" stroke="#191928" x1="457" y2="1671"/>
 <line x2="458" y1="1671" stroke="#191928" x1="457" y2="1667"/>
 <line x2="459" y1="1671" stroke="#191928" x1="458" y2="1667"/>
 <line x2="459" y1="1667" stroke="#191928" x1="458" y2="1663"/>
 <line x2="460" y1="1667" stroke="#191928" x1="459" y2="1663"/>
 <line x2="460" y1="1663" stroke="#191928" x1="459" y2="1659"/>
 <line x2="462" y1="1663" stroke="#191928" x1="460" y2="1659"/>
 <line x2="462" y1="1659" stroke="#191928" x1="460" y2="1654"/>
 <line x2="465" y1="1659" stroke="#191928" x1="462" y2="1654"/>
 <line x2="465" y1="1654" stroke="#191928" x1="462" y2="1650"/>
 <line x2="469" y1="1654" stroke="#191928" x1="465" y2="1650"/>
 <line x2="469" y1="1650" stroke="#191928" x1="465" y2="1646"/>
 <line x2="471" y1="1650" stroke="#191928" x1="469" y2="1646"/>
 <line x2="471" y1="1646" stroke="#191928" x1="469" y2="1643"/>
 <line x2="476" y1="1646" stroke="#191928" x1="471" y2="1643"/>
 <line x2="476" y1="1643" stroke="#191928" x1="471" y2="1637"/>
 <line x2="482" y1="1643" stroke="#191928" x1="476" y2="1637"/>
 <line x2="482" y1="1637" stroke="#191928" x1="476" y2="1630"/>
 <line x2="488" y1="1637" stroke="#191928" x1="482" y2="1630"/>
 <line x2="488" y1="1630" stroke="#191928" x1="482" y2="1624"/>
 <line x2="493" y1="1630" stroke="#191928" x1="488" y2="1624"/>
 <line x2="493" y1="1624" stroke="#191928" x1="488" y2="1619"/>
 <line x2="499" y1="1624" stroke="#191928" x1="493" y2="1619"/>
 <line x2="499" y1="1619" stroke="#191928" x1="493" y2="1615"/>
 <line x2="506" y1="1619" stroke="#191928" x1="499" y2="1615"/>
 <line x2="506" y1="1615" stroke="#191928" x1="499" y2="1611"/>
 <line x2="513" y1="1615" stroke="#191928" x1="506" y2="1611"/>
 <line x2="513" y1="1611" stroke="#191928" x1="506" y2="1608"/>
 <line x2="519" y1="1611" stroke="#191928" x1="513" y2="1608"/>
 <line x2="519" y1="1608" stroke="#191928" x1="513" y2="1605"/>
 <line x2="522" y1="1608" stroke="#191928" x1="519" y2="1605"/>
 <line x2="522" y1="1605" stroke="#191928" x1="519" y2="1601"/>
 <line x2="525" y1="1605" stroke="#191928" x1="522" y2="1601"/>
 <line x2="525" y1="1601" stroke="#191928" x1="522" y2="1595"/>
 <line x2="527" y1="1601" stroke="#191928" x1="525" y2="1595"/>
 <line x2="527" y1="1595" stroke="#191928" x1="525" y2="1588"/>
 <line x2="529" y1="1595" stroke="#191928" x1="527" y2="1588"/>
 <line x2="529" y1="1588" stroke="#191928" x1="527" y2="1581"/>
 <line x2="531" y1="1588" stroke="#191928" x1="529" y2="1581"/>
 <line x2="531" y1="1581" stroke="#191928" x1="529" y2="1575"/>
 <line x2="534" y1="1581" stroke="#191928" x1="531" y2="1575"/>
 <line x2="534" y1="1575" stroke="#191928" x1="531" y2="1571"/>
 <line x2="537" y1="1575" stroke="#191928" x1="534" y2="1571"/>
 <line x2="537" y1="1571" stroke="#191928" x1="534" y2="1567"/>
 <line x2="542" y1="1571" stroke="#191928" x1="537" y2="1567"/>
 <line x2="542" y1="1567" stroke="#191928" x1="537" y2="1563"/>
 <line x2="549" y1="1567" stroke="#191928" x1="542" y2="1563"/>
 <line x2="549" y1="1563" stroke="#191928" x1="542" y2="1559"/>
 <line x2="554" y1="1563" stroke="#191928" x1="549" y2="1559"/>
 <line x2="554" y1="1559" stroke="#191928" x1="549" y2="1554"/>
 <line x2="558" y1="1559" stroke="#191928" x1="554" y2="1554"/>
 <line x2="558" y1="1554" stroke="#191928" x1="554" y2="1548"/>
 <line x2="561" y1="1554" stroke="#191928" x1="558" y2="1548"/>
 <line x2="561" y1="1548" stroke="#191928" x1="558" y2="1541"/>
 <line x2="564" y1="1548" stroke="#191928" x1="561" y2="1541"/>
 <line x2="564" y1="1541" stroke="#191928" x1="561" y2="1533"/>
 <line x2="569" y1="1541" stroke="#191928" x1="564" y2="1533"/>
 <line x2="569" y1="1533" stroke="#191928" x1="564" y2="1527"/>
 <line x2="575" y1="1533" stroke="#191928" x1="569" y2="1527"/>
 <line x2="575" y1="1527" stroke="#191928" x1="569" y2="1521"/>
 <line x2="579" y1="1527" stroke="#191928" x1="575" y2="1521"/>
 <line x2="579" y1="1521" stroke="#191928" x1="575" y2="1517"/>
 <line x2="583" y1="1521" stroke="#191928" x1="579" y2="1517"/>
 <line x2="583" y1="1517" stroke="#191928" x1="579" y2="1514"/>
 <line x2="584" y1="1517" stroke="#191928" x1="583" y2="1514"/>
 <line x2="584" y1="1514" stroke="#191928" x1="583" y2="1509"/>
 <line x2="586" y1="1514" stroke="#191928" x1="584" y2="1509"/>
 <line x2="586" y1="1509" stroke="#191928" x1="584" y2="1503"/>
 <line x2="589" y1="1509" stroke="#191928" x1="586" y2="1503"/>
 <line x2="589" y1="1503" stroke="#191928" x1="586" y2="1496"/>
 <line x2="593" y1="1503" stroke="#191928" x1="589" y2="1496"/>
 <line x2="593" y1="1496" stroke="#191928" x1="589" y2="1489"/>
 <line x2="597" y1="1496" stroke="#191928" x1="593" y2="1489"/>
 <line x2="597" y1="1489" stroke="#191928" x1="593" y2="1484"/>
 <line x2="601" y1="1489" stroke="#191928" x1="597" y2="1484"/>
 <line x2="601" y1="1484" stroke="#191928" x1="597" y2="1480"/>
 <line x2="605" y1="1484" stroke="#191928" x1="601" y2="1480"/>
 <line x2="605" y1="1480" stroke="#191928" x1="601" y2="1475"/>
 <line x2="610" y1="1480" stroke="#191928" x1="605" y2="1475"/>
 <line x2="610" y1="1475" stroke="#191928" x1="605" y2="1470"/>
 <line x2="615" y1="1475" stroke="#191928" x1="610" y2="1470"/>
 <line x2="615" y1="1470" stroke="#191928" x1="610" y2="1464"/>
 <line x2="619" y1="1470" stroke="#191928" x1="615" y2="1464"/>
 <line x2="619" y1="1464" stroke="#191928" x1="615" y2="1458"/>
 <line x2="625" y1="1464" stroke="#191928" x1="619" y2="1458"/>
 <line x2="625" y1="1458" stroke="#191928" x1="619" y2="1451"/>
 <line x2="631" y1="1458" stroke="#191928" x1="625" y2="1451"/>
 <line x2="631" y1="1451" stroke="#191928" x1="625" y2="1445"/>
 <line x2="637" y1="1451" stroke="#191928" x1="631" y2="1445"/>
 <line x2="637" y1="1445" stroke="#191928" x1="631" y2="1439"/>
 <line x2="641" y1="1445" stroke="#191928" x1="637" y2="1439"/>
 <line x2="641" y1="1439" stroke="#191928" x1="637" y2="1434"/>
 <line x2="644" y1="1439" stroke="#191928" x1="641" y2="1434"/>
 <line x2="644" y1="1434" stroke="#191928" x1="641" y2="1431"/>
 <line x2="646" y1="1434" stroke="#191928" x1="644" y2="1431"/>
 <line x2="646" y1="1431" stroke="#191928" x1="644" y2="1428"/>
 <line x2="651" y1="1431" stroke="#191928" x1="646" y2="1428"/>
 <line x2="651" y1="1428" stroke="#191928" x1="646" y2="1421"/>
 <line x2="657" y1="1428" stroke="#191928" x1="651" y2="1421"/>
 <line x2="657" y1="1421" stroke="#191928" x1="651" y2="1412"/>
 <line x2="662" y1="1421" stroke="#191928" x1="657" y2="1412"/>
 <line x2="662" y1="1412" stroke="#191928" x1="657" y2="1404"/>
 <line x2="668" y1="1412" stroke="#191928" x1="662" y2="1404"/>
 <line x2="668" y1="1404" stroke="#191928" x1="662" y2="1396"/>
 <line x2="673" y1="1404" stroke="#191928" x1="668" y2="1396"/>
 <line x2="673" y1="1396" stroke="#191928" x1="668" y2="1390"/>
 <line x2="679" y1="1396" stroke="#191928" x1="673" y2="1390"/>
 <line x2="679" y1="1390" stroke="#191928" x1="673" y2="1386"/>
 <line x2="685" y1="1390" stroke="#191928" x1="679" y2="1386"/>
 <line x2="685" y1="1386" stroke="#191928" x1="679" y2="1379"/>
 <line x2="689" y1="1386" stroke="#191928" x1="685" y2="1379"/>
 <line x2="689" y1="1379" stroke="#191928" x1="685" y2="1370"/>
 <line x2="693" y1="1379" stroke="#191928" x1="689" y2="1370"/>
 <line x2="693" y1="1370" stroke="#191928" x1="689" y2="1361"/>
 <line x2="697" y1="1370" stroke="#191928" x1="693" y2="1361"/>
 <line x2="697" y1="1361" stroke="#191928" x1="693" y2="1354"/>
 <line x2="702" y1="1361" stroke="#191928" x1="697" y2="1354"/>
 <line x2="702" y1="1354" stroke="#191928" x1="697" y2="1349"/>
 <line x2="707" y1="1354" stroke="#191928" x1="702" y2="1349"/>
 <line x2="707" y1="1349" stroke="#191928" x1="702" y2="1343"/>
 <line x2="713" y1="1349" stroke="#191928" x1="707" y2="1343"/>
 <line x2="713" y1="1343" stroke="#191928" x1="707" y2="1334"/>
 <line x2="718" y1="1343" stroke="#191928" x1="713" y2="1334"/>
 <line x2="718" y1="1334" stroke="#191928" x1="713" y2="1324"/>
 <line x2="723" y1="1334" stroke="#191928" x1="718" y2="1324"/>
 <line x2="723" y1="1324" stroke="#191928" x1="718" y2="1316"/>
 <line x2="729" y1="1324" stroke="#191928" x1="723" y2="1316"/>
 <line x2="729" y1="1316" stroke="#191928" x1="723" y2="1309"/>
 <line x2="736" y1="1316" stroke="#191928" x1="729" y2="1309"/>
 <line x2="736" y1="1309" stroke="#191928" x1="729" y2="1304"/>
 <line x2="741" y1="1309" stroke="#191928" x1="736" y2="1304"/>
 <line x2="741" y1="1304" stroke="#191928" x1="736" y2="1298"/>
 <line x2="745" y1="1304" stroke="#191928" x1="741" y2="1298"/>
 <line x2="745" y1="1298" stroke="#191928" x1="741" y2="1287"/>
 <line x2="747" y1="1298" stroke="#191928" x1="745" y2="1287"/>
 <line x2="747" y1="1287" stroke="#191928" x1="745" y2="1277"/>
 <line x2="750" y1="1287" stroke="#191928" x1="747" y2="1277"/>
 <line x2="750" y1="1277" stroke="#191928" x1="747" y2="1268"/>
 <line x2="756" y1="1277" stroke="#191928" x1="750" y2="1268"/>
 <line x2="756" y1="1268" stroke="#191928" x1="750" y2="1261"/>
 <line x2="763" y1="1268" stroke="#191928" x1="756" y2="1261"/>
 <line x2="763" y1="1261" stroke="#191928" x1="756" y2="1255"/>
 <line x2="769" y1="1261" stroke="#191928" x1="763" y2="1255"/>
 <line x2="769" y1="1255" stroke="#191928" x1="763" y2="1248"/>
 <line x2="775" y1="1255" stroke="#191928" x1="769" y2="1248"/>
 <line x2="775" y1="1248" stroke="#191928" x1="769" y2="1240"/>
 <line x2="778" y1="1248" stroke="#191928" x1="775" y2="1240"/>
 <line x2="778" y1="1240" stroke="#191928" x1="775" y2="1232"/>
 <line x2="782" y1="1240" stroke="#191928" x1="778" y2="1232"/>
 <line x2="782" y1="1232" stroke="#191928" x1="778" y2="1224"/>
 <line x2="786" y1="1232" stroke="#191928" x1="782" y2="1224"/>
 <line x2="786" y1="1224" stroke="#191928" x1="782" y2="1217"/>
 <line x2="790" y1="1224" stroke="#191928" x1="786" y2="1217"/>
 <line x2="790" y1="1217" stroke="#191928" x1="786" y2="1212"/>
 <line x2="795" y1="1217" stroke="#191928" x1="790" y2="1212"/>
 <line x2="795" y1="1212" stroke="#191928" x1="790" y2="1207"/>
 <line x2="798" y1="1212" stroke="#191928" x1="795" y2="1207"/>
 <line x2="798" y1="1207" stroke="#191928" x1="795" y2="1201"/>
 <line x2="802" y1="1207" stroke="#191928" x1="798" y2="1201"/>
 <line x2="802" y1="1201" stroke="#191928" x1="798" y2="1192"/>
 <line x2="808" y1="1201" stroke="#191928" x1="802" y2="1192"/>
 <line x2="808" y1="1192" stroke="#191928" x1="802" y2="1184"/>
 <line x2="813" y1="1192" stroke="#191928" x1="808" y2="1184"/>
 <line x2="813" y1="1184" stroke="#191928" x1="808" y2="1177"/>
 <line x2="818" y1="1184" stroke="#191928" x1="813" y2="1177"/>
 <line x2="818" y1="1177" stroke="#191928" x1="813" y2="1170"/>
 <line x2="825" y1="1177" stroke="#191928" x1="818" y2="1170"/>
 <line x2="825" y1="1170" stroke="#191928" x1="818" y2="1161"/>
 <line x2="830" y1="1170" stroke="#191928" x1="825" y2="1161"/>
 <line x2="830" y1="1161" stroke="#191928" x1="825" y2="1149"/>
 <line x2="834" y1="1161" stroke="#191928" x1="830" y2="1149"/>
 <line x2="834" y1="1149" stroke="#191928" x1="830" y2="1138"/>
 <line x2="839" y1="1149" stroke="#191928" x1="834" y2="1138"/>
 <line x2="839" y1="1138" stroke="#191928" x1="834" y2="1129"/>
 <line x2="845" y1="1138" stroke="#191928" x1="839" y2="1129"/>
 <line x2="845" y1="1129" stroke="#191928" x1="839" y2="1118"/>
 <line x2="852" y1="1129" stroke="#191928" x1="845" y2="1118"/>
 <line x2="852" y1="1118" stroke="#191928" x1="845" y2="1106"/>
 <line x2="858" y1="1118" stroke="#191928" x1="852" y2="1106"/>
 <line x2="858" y1="1106" stroke="#191928" x1="852" y2="1096"/>
 <line x2="865" y1="1106" stroke="#191928" x1="858" y2="1096"/>
 <line x2="865" y1="1096" stroke="#191928" x1="858" y2="1086"/>
 <line x2="872" y1="1096" stroke="#191928" x1="865" y2="1086"/>
 <line x2="872" y1="1086" stroke="#191928" x1="865" y2="1076"/>
 <line x2="877" y1="1086" stroke="#191928" x1="872" y2="1076"/>
 <line x2="877" y1="1076" stroke="#191928" x1="872" y2="1065"/>
 <line x2="884" y1="1076" stroke="#191928" x1="877" y2="1065"/>
 <line x2="884" y1="1065" stroke="#191928" x1="877" y2="1055"/>
 <line x2="892" y1="1065" stroke="#191928" x1="884" y2="1055"/>
 <line x2="892" y1="1055" stroke="#191928" x1="884" y2="1047"/>
 <line x2="898" y1="1055" stroke="#191928" x1="892" y2="1047"/>
 <line x2="898" y1="1047" stroke="#191928" x1="892" y2="1036"/>
 <line x2="903" y1="1047" stroke="#191928" x1="898" y2="1036"/>
 <line x2="903" y1="1036" stroke="#191928" x1="898" y2="1023"/>
 <line x2="910" y1="1036" stroke="#191928" x1="903" y2="1023"/>
 <line x2="910" y1="1023" stroke="#191928" x1="903" y2="1010"/>
 <line x2="917" y1="1023" stroke="#191928" x1="910" y2="1010"/>
 <line x2="917" y1="1010" stroke="#191928" x1="910" y2="999"/>
 <line x2="925" y1="1010" stroke="#191928" x1="917" y2="999"/>
 <line x2="925" y1="999" stroke="#191928" x1="917" y2="988"/>
 <line x2="931" y1="999" stroke="#191928" x1="925" y2="988"/>
 <line x2="931" y1="988" stroke="#191928" x1="925" y2="977"/>
 <line x2="938" y1="988" stroke="#191928" x1="931" y2="977"/>
 <line x2="938" y1="977" stroke="#191928" x1="931" y2="966"/>
 <line x2="945" y1="977" stroke="#191928" x1="938" y2="966"/>
 <line x2="945" y1="966" stroke="#191928" x1="938" y2="956"/>
 <line x2="951" y1="966" stroke="#191928" x1="945" y2="956"/>
 <line x2="951" y1="956" stroke="#191928" x1="945" y2="948"/>
 <line x2="959" y1="956" stroke="#191928" x1="951" y2="948"/>
 <line x2="959" y1="948" stroke="#191928" x1="951" y2="937"/>
 <line x2="967" y1="948" stroke="#191928" x1="959" y2="937"/>
 <line x2="967" y1="937" stroke="#191928" x1="959" y2="925"/>
 <line x2="975" y1="937" stroke="#191928" x1="967" y2="925"/>
 <line x2="975" y1="925" stroke="#191928" x1="967" y2="915"/>
 <line x2="982" y1="925" stroke="#191928" x1="975" y2="915"/>
 <line x2="982" y1="915" stroke="#191928" x1="975" y2="905"/>
 <line x2="989" y1="915" stroke="#191928" x1="982" y2="905"/>
 <line x2="989" y1="905" stroke="#191928" x1="982" y2="895"/>
 <line x2="997" y1="905" stroke="#191928" x1="989" y2="895"/>
 <line x2="997" y1="895" stroke="#191928" x1="989" y2="883"/>
 <line x2="1008" y1="895" stroke="#191928" x1="997" y2="883"/>
 <line x2="1008" y1="883" stroke="#191928" x1="997" y2="873"/>
 <line x2="1017" y1="883" stroke="#191928" x1="1008" y2="873"/>
 <line x2="1017" y1="873" stroke="#191928" x1="1008" y2="865"/>
 <line x2="1026" y1="873" stroke="#191928" x1="1017" y2="865"/>
 <line x2="1026" y1="865" stroke="#191928" x1="1017" y2="856"/>
 <line x2="1035" y1="865" stroke="#191928" x1="1026" y2="856"/>
 <line x2="1035" y1="856" stroke="#191928" x1="1026" y2="845"/>
 <line x2="1043" y1="856" stroke="#191928" x1="1035" y2="845"/>
 <line x2="1043" y1="845" stroke="#191928" x1="1035" y2="835"/>
 <line x2="1051" y1="845" stroke="#191928" x1="1043" y2="835"/>
 <line x2="1051" y1="835" stroke="#191928" x1="1043" y2="826"/>
 <line x2="1060" y1="835" stroke="#191928" x1="1051" y2="826"/>
 <line x2="1060" y1="826" stroke="#191928" x1="1051" y2="816"/>
 <line x2="1069" y1="826" stroke="#191928" x1="1060" y2="816"/>
 <line x2="1069" y1="816" stroke="#191928" x1="1060" y2="807"/>
 <line x2="1077" y1="816" stroke="#191928" x1="1069" y2="807"/>
 <line x2="1077" y1="807" stroke="#191928" x1="1069" y2="799"/>
 <line x2="1084" y1="807" stroke="#191928" x1="1077" y2="799"/>
 <line x2="1084" y1="799" stroke="#191928" x1="1077" y2="791"/>
 <line x2="1092" y1="799" stroke="#191928" x1="1084" y2="791"/>
 <line x2="1092" y1="791" stroke="#191928" x1="1084" y2="783"/>
 <line x2="1101" y1="791" stroke="#191928" x1="1092" y2="783"/>
 <line x2="1101" y1="783" stroke="#191928" x1="1092" y2="775"/>
 <line x2="1110" y1="783" stroke="#191928" x1="1101" y2="775"/>
 <line x2="1110" y1="775" stroke="#191928" x1="1101" y2="767"/>
 <line x2="1119" y1="775" stroke="#191928" x1="1110" y2="767"/>
 <line x2="1119" y1="767" stroke="#191928" x1="1110" y2="760"/>
 <line x2="1129" y1="767" stroke="#191928" x1="1119" y2="760"/>
 <line x2="1129" y1="760" stroke="#191928" x1="1119" y2="751"/>
 <line x2="1138" y1="760" stroke="#191928" x1="1129" y2="751"/>
 <line x2="1138" y1="751" stroke="#191928" x1="1129" y2="743"/>
 <line x2="1147" y1="751" stroke="#191928" x1="1138" y2="743"/>
 <line x2="1147" y1="743" stroke="#191928" x1="1138" y2="735"/>
 <line x2="1155" y1="743" stroke="#191928" x1="1147" y2="735"/>
 <line x2="1155" y1="735" stroke="#191928" x1="1147" y2="728"/>
 <line x2="1162" y1="735" stroke="#191928" x1="1155" y2="728"/>
 <line x2="1162" y1="728" stroke="#191928" x1="1155" y2="723"/>
 <line x2="1169" y1="728" stroke="#191928" x1="1162" y2="723"/>
 <line x2="1169" y1="723" stroke="#191928" x1="1162" y2="718"/>
 <line x2="1177" y1="723" stroke="#191928" x1="1169" y2="718"/>
 <line x2="1177" y1="718" stroke="#191928" x1="1169" y2="712"/>
 <line x2="1186" y1="718" stroke="#191928" x1="1177" y2="712"/>
 <line x2="1186" y1="712" stroke="#191928" x1="1177" y2="705"/>
 <line x2="1193" y1="712" stroke="#191928" x1="1186" y2="705"/>
 <line x2="1193" y1="705" stroke="#191928" x1="1186" y2="698"/>
 <line x2="1201" y1="705" stroke="#191928" x1="1193" y2="698"/>
 <line x2="1201" y1="698" stroke="#191928" x1="1193" y2="692"/>
 <line x2="1207" y1="698" stroke="#191928" x1="1201" y2="692"/>
 <line x2="1207" y1="692" stroke="#191928" x1="1201" y2="686"/>
 <line x2="1213" y1="692" stroke="#191928" x1="1207" y2="686"/>
 <line x2="1213" y1="686" stroke="#191928" x1="1207" y2="681"/>
 <line x2="1219" y1="686" stroke="#191928" x1="1213" y2="681"/>
 <line x2="1219" y1="681" stroke="#191928" x1="1213" y2="677"/>
 <line x2="1224" y1="681" stroke="#191928" x1="1219" y2="677"/>
 <line x2="1224" y1="677" stroke="#191928" x1="1219" y2="674"/>
 <line x2="1230" y1="677" stroke="#191928" x1="1224" y2="674"/>
 <line x2="1230" y1="674" stroke="#191928" x1="1224" y2="671"/>
 <line x2="1235" y1="674" stroke="#191928" x1="1230" y2="671"/>
 <line x2="1235" y1="671" stroke="#191928" x1="1230" y2="669"/>
 <line x2="1239" y1="671" stroke="#191928" x1="1235" y2="669"/>
 <line x2="1239" y1="669" stroke="#191928" x1="1235" y2="667"/>
 <line x2="1243" y1="669" stroke="#191928" x1="1239" y2="667"/>
 <line x2="1243" y1="667" stroke="#191928" x1="1239" y2="664"/>
 <line x2="1248" y1="667" stroke="#191928" x1="1243" y2="664"/>
 <line x2="1248" y1="664" stroke="#191928" x1="1243" y2="661"/>
 <line x2="1254" y1="664" stroke="#191928" x1="1248" y2="661"/>
 <line x2="1254" y1="661" stroke="#191928" x1="1248" y2="658"/>
 <line x2="1261" y1="661" stroke="#191928" x1="1254" y2="658"/>
 <line x2="1261" y1="658" stroke="#191928" x1="1254" y2="655"/>
 <line x2="1267" y1="658" stroke="#191928" x1="1261" y2="655"/>
 <line x2="1267" y1="655" stroke="#191928" x1="1261" y2="652"/>
 <line x2="1272" y1="655" stroke="#191928" x1="1267" y2="652"/>
 <line x2="1272" y1="652" stroke="#191928" x1="1267" y2="650"/>
 <line x2="1275" y1="652" stroke="#191928" x1="1272" y2="650"/>
 <line x2="1275" y1="650" stroke="#191928" x1="1272" y2="649"/>
 <line x2="1278" y1="650" stroke="#191928" x1="1275" y2="649"/>
 <line x2="1278" y1="649" stroke="#191928" x1="1275" y2="648"/>
 <line x2="1280" y1="649" stroke="#191928" x1="1278" y2="648"/>
 <line x2="1281" y1="649" stroke="#191928" x1="1280" y2="648"/>
 <line x2="1280" y1="649" stroke="#191928" x1="1281" y2="648"/>
 <line x2="1277" y1="649" stroke="#191928" x1="1280" y2="648"/>
 <line x2="1274" y1="649" stroke="#191928" x1="1277" y2="648"/>
 <line x2="1272" y1="649" stroke="#191928" x1="1274" y2="648"/>
 <line x2="1270" y1="649" stroke="#191928" x1="1272" y2="648"/>
 <line x2="1269" y1="649" stroke="#191928" x1="1270" y2="648"/>
 <line x2="1268" y1="649" stroke="#191928" x1="1269" y2="648"/>
 <line x2="1267" y1="649" stroke="#191928" x1="1268" y2="648"/>
 <line x2="1266" y1="649" stroke="#191928" x1="1267" y2="648"/>
 <line x2="1265" y1="649" stroke="#191928" x1="1266" y2="648"/>
 <line x2="1263" y1="649" stroke="#191928" x1="1265" y2="648"/>
 <line x2="1261" y1="649" stroke="#191928" x1="1263" y2="648"/>
 <line x2="1259" y1="649" stroke="#191928" x1="1261" y2="648"/>
 <line x2="1258" y1="649" stroke="#191928" x1="1259" y2="648"/>
 <line x2="1258" y1="648" stroke="#191928" x1="1259" y2="650"/>
 <line x2="1257" y1="648" stroke="#191928" x1="1258" y2="650"/>
 <line x2="1257" y1="650" stroke="#191928" x1="1258" y2="652"/>
 <line x2="1256" y1="650" stroke="#191928" x1="1257" y2="652"/>
 <line x2="1256" y1="652" stroke="#191928" x1="1257" y2="656"/>
 <line x2="1256" y1="656" stroke="#191928" x1="1257" y2="658"/>
 <line x2="1256" y1="658" stroke="#191928" x1="1257" y2="659"/>
 <line x2="1256" y1="658" stroke="#191928" x1="1257" y2="659"/>
 <line x2="1256" y1="658" stroke="#191928" x1="1257" y2="659"/>
 <line x2="1256" y1="658" stroke="#191928" x1="1257" y2="659"/>
 <line x2="1256" y1="658" stroke="#191928" x1="1257" y2="659"/>
 <line x2="352" y1="658" stroke="#191928" x1="1256" y2="659"/>
 <line x2="352" y1="659" stroke="#191928" x1="1256" y2="540"/>
 <line x2="351" y1="659" stroke="#191928" x1="352" y2="540"/>
 <line x2="351" y1="540" stroke="#191928" x1="352" y2="539"/>
 <line x2="350" y1="540" stroke="#191928" x1="351" y2="539"/>
 <line x2="350" y1="539" stroke="#191928" x1="351" y2="538"/>
 <line x2="349" y1="539" stroke="#191928" x1="350" y2="538"/>
 <line x2="349" y1="538" stroke="#191928" x1="350" y2="537"/>
 <line x2="349" y1="537" stroke="#191928" x1="350" y2="536"/>
 <line x2="348" y1="537" stroke="#191928" x1="349" y2="536"/>
 <line x2="349" y1="537" stroke="#191928" x1="348" y2="536"/>
 <line x2="351" y1="537" stroke="#191928" x1="349" y2="536"/>
 <line x2="351" y1="536" stroke="#191928" x1="349" y2="537"/>
 <line x2="355" y1="536" stroke="#191928" x1="351" y2="537"/>
 <line x2="355" y1="537" stroke="#191928" x1="351" y2="541"/>
 <line x2="359" y1="537" stroke="#191928" x1="355" y2="541"/>
 <line x2="359" y1="541" stroke="#191928" x1="355" y2="544"/>
 <line x2="363" y1="541" stroke="#191928" x1="359" y2="544"/>
 <line x2="363" y1="544" stroke="#191928" x1="359" y2="548"/>
 <line x2="367" y1="544" stroke="#191928" x1="363" y2="548"/>
 <line x2="367" y1="548" stroke="#191928" x1="363" y2="554"/>
 <line x2="373" y1="548" stroke="#191928" x1="367" y2="554"/>
 <line x2="373" y1="554" stroke="#191928" x1="367" y2="559"/>
 <line x2="380" y1="554" stroke="#191928" x1="373" y2="559"/>
 <line x2="380" y1="559" stroke="#191928" x1="373" y2="564"/>
 <line x2="387" y1="559" stroke="#191928" x1="380" y2="564"/>
 <line x2="387" y1="564" stroke="#191928" x1="380" y2="569"/>
 <line x2="392" y1="564" stroke="#191928" x1="387" y2="569"/>
 <line x2="392" y1="569" stroke="#191928" x1="387" y2="573"/>
 <line x2="396" y1="569" stroke="#191928" x1="392" y2="573"/>
 <line x2="396" y1="573" stroke="#191928" x1="392" y2="578"/>
 <line x2="400" y1="573" stroke="#191928" x1="396" y2="578"/>
 <line x2="400" y1="578" stroke="#191928" x1="396" y2="582"/>
 <line x2="403" y1="578" stroke="#191928" x1="400" y2="582"/>
 <line x2="403" y1="582" stroke="#191928" x1="400" y2="587"/>
 <line x2="409" y1="582" stroke="#191928" x1="403" y2="587"/>
 <line x2="409" y1="587" stroke="#191928" x1="403" y2="592"/>
 <line x2="415" y1="587" stroke="#191928" x1="409" y2="592"/>
 <line x2="415" y1="592" stroke="#191928" x1="409" y2="597"/>
 <line x2="422" y1="592" stroke="#191928" x1="415" y2="597"/>
 <line x2="422" y1="597" stroke="#191928" x1="415" y2="602"/>
 <line x2="428" y1="597" stroke="#191928" x1="422" y2="602"/>
 <line x2="428" y1="602" stroke="#191928" x1="422" y2="608"/>
 <line x2="433" y1="602" stroke="#191928" x1="428" y2="608"/>
 <line x2="433" y1="608" stroke="#191928" x1="428" y2="614"/>
 <line x2="440" y1="608" stroke="#191928" x1="433" y2="614"/>
 <line x2="440" y1="614" stroke="#191928" x1="433" y2="619"/>
 <line x2="446" y1="614" stroke="#191928" x1="440" y2="619"/>
 <line x2="446" y1="619" stroke="#191928" x1="440" y2="623"/>
 <line x2="451" y1="619" stroke="#191928" x1="446" y2="623"/>
 <line x2="451" y1="623" stroke="#191928" x1="446" y2="628"/>
 <line x2="455" y1="623" stroke="#191928" x1="451" y2="628"/>
 <line x2="455" y1="628" stroke="#191928" x1="451" y2="633"/>
 <line x2="458" y1="628" stroke="#191928" x1="455" y2="633"/>
 <line x2="458" y1="633" stroke="#191928" x1="455" y2="637"/>
 <line x2="460" y1="633" stroke="#191928" x1="458" y2="637"/>
 <line x2="460" y1="637" stroke="#191928" x1="458" y2="641"/>
 <line x2="463" y1="637" stroke="#191928" x1="460" y2="641"/>
 <line x2="463" y1="641" stroke="#191928" x1="460" y2="645"/>
 <line x2="465" y1="641" stroke="#191928" x1="463" y2="645"/>
 <line x2="465" y1="645" stroke="#191928" x1="463" y2="650"/>
 <line x2="467" y1="645" stroke="#191928" x1="465" y2="650"/>
 <line x2="467" y1="650" stroke="#191928" x1="465" y2="653"/>
 <line x2="469" y1="650" stroke="#191928" x1="467" y2="653"/>
 <line x2="469" y1="653" stroke="#191928" x1="467" y2="656"/>
 <line x2="471" y1="653" stroke="#191928" x1="469" y2="656"/>
 <line x2="471" y1="656" stroke="#191928" x1="469" y2="658"/>
 <line x2="474" y1="656" stroke="#191928" x1="471" y2="658"/>
 <line x2="474" y1="658" stroke="#191928" x1="471" y2="660"/>
 <line x2="478" y1="658" stroke="#191928" x1="474" y2="660"/>
 <line x2="478" y1="660" stroke="#191928" x1="474" y2="661"/>
 <line x2="481" y1="660" stroke="#191928" x1="478" y2="661"/>
 <line x2="481" y1="661" stroke="#191928" x1="478" y2="663"/>
 <line x2="485" y1="661" stroke="#191928" x1="481" y2="663"/>
 <line x2="485" y1="663" stroke="#191928" x1="481" y2="665"/>
 <line x2="488" y1="663" stroke="#191928" x1="485" y2="665"/>
 <line x2="488" y1="665" stroke="#191928" x1="485" y2="667"/>
 <line x2="492" y1="665" stroke="#191928" x1="488" y2="667"/>
 <line x2="492" y1="667" stroke="#191928" x1="488" y2="670"/>
 <line x2="495" y1="667" stroke="#191928" x1="492" y2="670"/>
 <line x2="495" y1="670" stroke="#191928" x1="492" y2="674"/>
 <line x2="497" y1="670" stroke="#191928" x1="495" y2="674"/>
 <line x2="497" y1="674" stroke="#191928" x1="495" y2="678"/>
 <line x2="499" y1="674" stroke="#191928" x1="497" y2="678"/>
 <line x2="499" y1="678" stroke="#191928" x1="497" y2="684"/>
 <line x2="503" y1="678" stroke="#191928" x1="499" y2="684"/>
 <line x2="503" y1="684" stroke="#191928" x1="499" y2="690"/>
 <line x2="507" y1="684" stroke="#191928" x1="503" y2="690"/>
 <line x2="507" y1="690" stroke="#191928" x1="503" y2="695"/>
 <line x2="511" y1="690" stroke="#191928" x1="507" y2="695"/>
 <line x2="511" y1="695" stroke="#191928" x1="507" y2="701"/>
 <line x2="514" y1="695" stroke="#191928" x1="511" y2="701"/>
 <line x2="514" y1="701" stroke="#191928" x1="511" y2="706"/>
 <line x2="516" y1="701" stroke="#191928" x1="514" y2="706"/>
 <line x2="516" y1="706" stroke="#191928" x1="514" y2="712"/>
 <line x2="519" y1="706" stroke="#191928" x1="516" y2="712"/>
 <line x2="519" y1="712" stroke="#191928" x1="516" y2="717"/>
 <line x2="521" y1="712" stroke="#191928" x1="519" y2="717"/>
 <line x2="521" y1="717" stroke="#191928" x1="519" y2="723"/>
 <line x2="522" y1="717" stroke="#191928" x1="521" y2="723"/>
 <line x2="522" y1="723" stroke="#191928" x1="521" y2="729"/>
 <line x2="524" y1="723" stroke="#191928" x1="522" y2="729"/>
 <line x2="524" y1="729" stroke="#191928" x1="522" y2="735"/>
 <line x2="526" y1="729" stroke="#191928" x1="524" y2="735"/>
 <line x2="526" y1="735" stroke="#191928" x1="524" y2="741"/>
 <line x2="528" y1="735" stroke="#191928" x1="526" y2="741"/>
 <line x2="528" y1="741" stroke="#191928" x1="526" y2="746"/>
 <line x2="531" y1="741" stroke="#191928" x1="528" y2="746"/>
 <line x2="531" y1="746" stroke="#191928" x1="528" y2="752"/>
 <line x2="533" y1="746" stroke="#191928" x1="531" y2="752"/>
 <line x2="533" y1="752" stroke="#191928" x1="531" y2="760"/>
 <line x2="537" y1="752" stroke="#191928" x1="533" y2="760"/>
 <line x2="537" y1="760" stroke="#191928" x1="533" y2="769"/>
 <line x2="542" y1="760" stroke="#191928" x1="537" y2="769"/>
 <line x2="542" y1="769" stroke="#191928" x1="537" y2="778"/>
 <line x2="547" y1="769" stroke="#191928" x1="542" y2="778"/>
 <line x2="547" y1="778" stroke="#191928" x1="542" y2="786"/>
 <line x2="552" y1="778" stroke="#191928" x1="547" y2="786"/>
 <line x2="552" y1="786" stroke="#191928" x1="547" y2="793"/>
 <line x2="557" y1="786" stroke="#191928" x1="552" y2="793"/>
 <line x2="557" y1="793" stroke="#191928" x1="552" y2="799"/>
 <line x2="562" y1="793" stroke="#191928" x1="557" y2="799"/>
 <line x2="562" y1="799" stroke="#191928" x1="557" y2="806"/>
 <line x2="567" y1="799" stroke="#191928" x1="562" y2="806"/>
 <line x2="567" y1="806" stroke="#191928" x1="562" y2="814"/>
 <line x2="571" y1="806" stroke="#191928" x1="567" y2="814"/>
 <line x2="571" y1="814" stroke="#191928" x1="567" y2="821"/>
 <line x2="575" y1="814" stroke="#191928" x1="571" y2="821"/>
 <line x2="575" y1="821" stroke="#191928" x1="571" y2="828"/>
 <line x2="579" y1="821" stroke="#191928" x1="575" y2="828"/>
 <line x2="579" y1="828" stroke="#191928" x1="575" y2="836"/>
 <line x2="583" y1="828" stroke="#191928" x1="579" y2="836"/>
 <line x2="583" y1="836" stroke="#191928" x1="579" y2="843"/>
 <line x2="588" y1="836" stroke="#191928" x1="583" y2="843"/>
 <line x2="588" y1="843" stroke="#191928" x1="583" y2="849"/>
 <line x2="594" y1="843" stroke="#191928" x1="588" y2="849"/>
 <line x2="594" y1="849" stroke="#191928" x1="588" y2="856"/>
 <line x2="600" y1="849" stroke="#191928" x1="594" y2="856"/>
 <line x2="600" y1="856" stroke="#191928" x1="594" y2="864"/>
 <line x2="605" y1="856" stroke="#191928" x1="600" y2="864"/>
 <line x2="605" y1="864" stroke="#191928" x1="600" y2="871"/>
 <line x2="612" y1="864" stroke="#191928" x1="605" y2="871"/>
 <line x2="612" y1="871" stroke="#191928" x1="605" y2="879"/>
 <line x2="619" y1="871" stroke="#191928" x1="612" y2="879"/>
 <line x2="619" y1="879" stroke="#191928" x1="612" y2="886"/>
 <line x2="624" y1="879" stroke="#191928" x1="619" y2="886"/>
 <line x2="624" y1="886" stroke="#191928" x1="619" y2="893"/>
 <line x2="627" y1="886" stroke="#191928" x1="624" y2="893"/>
 <line x2="627" y1="893" stroke="#191928" x1="624" y2="899"/>
 <line x2="631" y1="893" stroke="#191928" x1="627" y2="899"/>
 <line x2="631" y1="899" stroke="#191928" x1="627" y2="905"/>
 <line x2="634" y1="899" stroke="#191928" x1="631" y2="905"/>
 <line x2="634" y1="905" stroke="#191928" x1="631" y2="912"/>
 <line x2="637" y1="905" stroke="#191928" x1="634" y2="912"/>
 <line x2="637" y1="912" stroke="#191928" x1="634" y2="919"/>
 <line x2="640" y1="912" stroke="#191928" x1="637" y2="919"/>
 <line x2="640" y1="919" stroke="#191928" x1="637" y2="925"/>
 <line x2="642" y1="919" stroke="#191928" x1="640" y2="925"/>
 <line x2="642" y1="925" stroke="#191928" x1="640" y2="930"/>
 <line x2="645" y1="925" stroke="#191928" x1="642" y2="930"/>
 <line x2="645" y1="930" stroke="#191928" x1="642" y2="937"/>
 <line x2="649" y1="930" stroke="#191928" x1="645" y2="937"/>
 <line x2="649" y1="937" stroke="#191928" x1="645" y2="943"/>
 <line x2="652" y1="937" stroke="#191928" x1="649" y2="943"/>
 <line x2="652" y1="943" stroke="#191928" x1="649" y2="949"/>
 <line x2="657" y1="943" stroke="#191928" x1="652" y2="949"/>
 <line x2="657" y1="949" stroke="#191928" x1="652" y2="956"/>
 <line x2="663" y1="949" stroke="#191928" x1="657" y2="956"/>
 <line x2="663" y1="956" stroke="#191928" x1="657" y2="963"/>
 <line x2="670" y1="956" stroke="#191928" x1="663" y2="963"/>
 <line x2="670" y1="963" stroke="#191928" x1="663" y2="969"/>
 <line x2="676" y1="963" stroke="#191928" x1="670" y2="969"/>
 <line x2="676" y1="969" stroke="#191928" x1="670" y2="976"/>
 <line x2="681" y1="969" stroke="#191928" x1="676" y2="976"/>
 <line x2="681" y1="976" stroke="#191928" x1="676" y2="984"/>
 <line x2="687" y1="976" stroke="#191928" x1="681" y2="984"/>
 <line x2="687" y1="984" stroke="#191928" x1="681" y2="995"/>
 <line x2="694" y1="984" stroke="#191928" x1="687" y2="995"/>
 <line x2="694" y1="995" stroke="#191928" x1="687" y2="1006"/>
 <line x2="705" y1="995" stroke="#191928" x1="694" y2="1006"/>
 <line x2="705" y1="1006" stroke="#191928" x1="694" y2="1018"/>
 <line x2="716" y1="1006" stroke="#191928" x1="705" y2="1018"/>
 <line x2="716" y1="1018" stroke="#191928" x1="705" y2="1032"/>
 <line x2="727" y1="1018" stroke="#191928" x1="716" y2="1032"/>
 <line x2="727" y1="1032" stroke="#191928" x1="716" y2="1045"/>
 <line x2="737" y1="1032" stroke="#191928" x1="727" y2="1045"/>
 <line x2="737" y1="1045" stroke="#191928" x1="727" y2="1059"/>
 <line x2="750" y1="1045" stroke="#191928" x1="737" y2="1059"/>
 <line x2="750" y1="1059" stroke="#191928" x1="737" y2="1071"/>
 <line x2="765" y1="1059" stroke="#191928" x1="750" y2="1071"/>
 <line x2="765" y1="1071" stroke="#191928" x1="750" y2="1084"/>
 <line x2="779" y1="1071" stroke="#191928" x1="765" y2="1084"/>
 <line x2="779" y1="1084" stroke="#191928" x1="765" y2="1097"/>
 <line x2="792" y1="1084" stroke="#191928" x1="779" y2="1097"/>
 <line x2="792" y1="1097" stroke="#191928" x1="779" y2="1111"/>
 <line x2="805" y1="1097" stroke="#191928" x1="792" y2="1111"/>
 <line x2="805" y1="1111" stroke="#191928" x1="792" y2="1125"/>
 <line x2="819" y1="1111" stroke="#191928" x1="805" y2="1125"/>
 <line x2="819" y1="1125" stroke="#191928" x1="805" y2="1137"/>
 <line x2="832" y1="1125" stroke="#191928" x1="819" y2="1137"/>
 <line x2="832" y1="1137" stroke="#191928" x1="819" y2="1149"/>
 <line x2="844" y1="1137" stroke="#191928" x1="832" y2="1149"/>
 <line x2="844" y1="1149" stroke="#191928" x1="832" y2="1164"/>
 <line x2="856" y1="1149" stroke="#191928" x1="844" y2="1164"/>
 <line x2="856" y1="1164" stroke="#191928" x1="844" y2="1177"/>
 <line x2="870" y1="1164" stroke="#191928" x1="856" y2="1177"/>
 <line x2="870" y1="1177" stroke="#191928" x1="856" y2="1189"/>
 <line x2="883" y1="1177" stroke="#191928" x1="870" y2="1189"/>
 <line x2="883" y1="1189" stroke="#191928" x1="870" y2="1200"/>
 <line x2="895" y1="1189" stroke="#191928" x1="883" y2="1200"/>
 <line x2="895" y1="1200" stroke="#191928" x1="883" y2="1214"/>
 <line x2="905" y1="1200" stroke="#191928" x1="895" y2="1214"/>
 <line x2="905" y1="1214" stroke="#191928" x1="895" y2="1227"/>
 <line x2="913" y1="1214" stroke="#191928" x1="905" y2="1227"/>
 <line x2="913" y1="1227" stroke="#191928" x1="905" y2="1239"/>
 <line x2="922" y1="1227" stroke="#191928" x1="913" y2="1239"/>
 <line x2="922" y1="1239" stroke="#191928" x1="913" y2="1250"/>
 <line x2="933" y1="1239" stroke="#191928" x1="922" y2="1250"/>
 <line x2="933" y1="1250" stroke="#191928" x1="922" y2="1262"/>
 <line x2="944" y1="1250" stroke="#191928" x1="933" y2="1262"/>
 <line x2="944" y1="1262" stroke="#191928" x1="933" y2="1272"/>
 <line x2="955" y1="1262" stroke="#191928" x1="944" y2="1272"/>
 <line x2="955" y1="1272" stroke="#191928" x1="944" y2="1282"/>
 <line x2="965" y1="1272" stroke="#191928" x1="955" y2="1282"/>
 <line x2="965" y1="1282" stroke="#191928" x1="955" y2="1293"/>
 <line x2="974" y1="1282" stroke="#191928" x1="965" y2="1293"/>
 <line x2="974" y1="1293" stroke="#191928" x1="965" y2="1305"/>
 <line x2="983" y1="1293" stroke="#191928" x1="974" y2="1305"/>
 <line x2="983" y1="1305" stroke="#191928" x1="974" y2="1316"/>
 <line x2="995" y1="1305" stroke="#191928" x1="983" y2="1316"/>
 <line x2="995" y1="1316" stroke="#191928" x1="983" y2="1325"/>
 <line x2="1007" y1="1316" stroke="#191928" x1="995" y2="1325"/>
 <line x2="1007" y1="1325" stroke="#191928" x1="995" y2="1335"/>
 <line x2="1017" y1="1325" stroke="#191928" x1="1007" y2="1335"/>
 <line x2="1017" y1="1335" stroke="#191928" x1="1007" y2="1343"/>
 <line x2="1026" y1="1335" stroke="#191928" x1="1017" y2="1343"/>
 <line x2="1026" y1="1343" stroke="#191928" x1="1017" y2="1352"/>
 <line x2="1035" y1="1343" stroke="#191928" x1="1026" y2="1352"/>
 <line x2="1035" y1="1352" stroke="#191928" x1="1026" y2="1361"/>
 <line x2="1042" y1="1352" stroke="#191928" x1="1035" y2="1361"/>
 <line x2="1042" y1="1361" stroke="#191928" x1="1035" y2="1369"/>
 <line x2="1048" y1="1361" stroke="#191928" x1="1042" y2="1369"/>
 <line x2="1048" y1="1369" stroke="#191928" x1="1042" y2="1375"/>
 <line x2="1054" y1="1369" stroke="#191928" x1="1048" y2="1375"/>
 <line x2="1054" y1="1375" stroke="#191928" x1="1048" y2="1382"/>
 <line x2="1061" y1="1375" stroke="#191928" x1="1054" y2="1382"/>
 <line x2="1061" y1="1382" stroke="#191928" x1="1054" y2="1390"/>
 <line x2="1067" y1="1382" stroke="#191928" x1="1061" y2="1390"/>
 <line x2="1067" y1="1390" stroke="#191928" x1="1061" y2="1398"/>
 <line x2="1074" y1="1390" stroke="#191928" x1="1067" y2="1398"/>
 <line x2="1074" y1="1398" stroke="#191928" x1="1067" y2="1404"/>
 <line x2="1081" y1="1398" stroke="#191928" x1="1074" y2="1404"/>
 <line x2="1081" y1="1404" stroke="#191928" x1="1074" y2="1409"/>
 <line x2="1089" y1="1404" stroke="#191928" x1="1081" y2="1409"/>
 <line x2="1089" y1="1409" stroke="#191928" x1="1081" y2="1415"/>
 <line x2="1097" y1="1409" stroke="#191928" x1="1089" y2="1415"/>
 <line x2="1097" y1="1415" stroke="#191928" x1="1089" y2="1421"/>
 <line x2="1105" y1="1415" stroke="#191928" x1="1097" y2="1421"/>
 <line x2="1105" y1="1421" stroke="#191928" x1="1097" y2="1427"/>
 <line x2="1111" y1="1421" stroke="#191928" x1="1105" y2="1427"/>
 <line x2="1111" y1="1427" stroke="#191928" x1="1105" y2="1433"/>
 <line x2="1118" y1="1427" stroke="#191928" x1="1111" y2="1433"/>
 <line x2="1118" y1="1433" stroke="#191928" x1="1111" y2="1440"/>
 <line x2="1124" y1="1433" stroke="#191928" x1="1118" y2="1440"/>
 <line x2="1124" y1="1440" stroke="#191928" x1="1118" y2="1447"/>
 <line x2="1130" y1="1440" stroke="#191928" x1="1124" y2="1447"/>
 <line x2="1130" y1="1447" stroke="#191928" x1="1124" y2="1455"/>
 <line x2="1135" y1="1447" stroke="#191928" x1="1130" y2="1455"/>
 <line x2="1135" y1="1455" stroke="#191928" x1="1130" y2="1461"/>
 <line x2="1144" y1="1455" stroke="#191928" x1="1135" y2="1461"/>
 <line x2="1144" y1="1461" stroke="#191928" x1="1135" y2="1467"/>
 <line x2="1153" y1="1461" stroke="#191928" x1="1144" y2="1467"/>
 <line x2="1153" y1="1467" stroke="#191928" x1="1144" y2="1474"/>
 <line x2="1163" y1="1467" stroke="#191928" x1="1153" y2="1474"/>
 <line x2="1163" y1="1474" stroke="#191928" x1="1153" y2="1480"/>
 <line x2="1172" y1="1474" stroke="#191928" x1="1163" y2="1480"/>
 <line x2="1172" y1="1480" stroke="#191928" x1="1163" y2="1486"/>
 <line x2="1180" y1="1480" stroke="#191928" x1="1172" y2="1486"/>
 <line x2="1180" y1="1486" stroke="#191928" x1="1172" y2="1493"/>
 <line x2="1188" y1="1486" stroke="#191928" x1="1180" y2="1493"/>
 <line x2="1188" y1="1493" stroke="#191928" x1="1180" y2="1499"/>
 <line x2="1195" y1="1493" stroke="#191928" x1="1188" y2="1499"/>
 <line x2="1195" y1="1499" stroke="#191928" x1="1188" y2="1506"/>
 <line x2="1201" y1="1499" stroke="#191928" x1="1195" y2="1506"/>
 <line x2="1201" y1="1506" stroke="#191928" x1="1195" y2="1512"/>
 <line x2="1207" y1="1506" stroke="#191928" x1="1201" y2="1512"/>
 <line x2="1207" y1="1512" stroke="#191928" x1="1201" y2="1519"/>
 <line x2="1214" y1="1512" stroke="#191928" x1="1207" y2="1519"/>
 <line x2="1214" y1="1519" stroke="#191928" x1="1207" y2="1526"/>
 <line x2="1221" y1="1519" stroke="#191928" x1="1214" y2="1526"/>
 <line x2="1221" y1="1526" stroke="#191928" x1="1214" y2="1532"/>
 <line x2="1227" y1="1526" stroke="#191928" x1="1221" y2="1532"/>
 <line x2="1227" y1="1532" stroke="#191928" x1="1221" y2="1537"/>
 <line x2="1233" y1="1532" stroke="#191928" x1="1227" y2="1537"/>
 <line x2="1233" y1="1537" stroke="#191928" x1="1227" y2="1541"/>
 <line x2="1238" y1="1537" stroke="#191928" x1="1233" y2="1541"/>
 <line x2="1238" y1="1541" stroke="#191928" x1="1233" y2="1545"/>
 <line x2="1242" y1="1541" stroke="#191928" x1="1238" y2="1545"/>
 <line x2="1242" y1="1545" stroke="#191928" x1="1238" y2="1547"/>
 <line x2="1245" y1="1545" stroke="#191928" x1="1242" y2="1547"/>
 <line x2="1245" y1="1547" stroke="#191928" x1="1242" y2="1550"/>
 <line x2="1247" y1="1547" stroke="#191928" x1="1245" y2="1550"/>
 <line x2="1247" y1="1550" stroke="#191928" x1="1245" y2="1552"/>
 <line x2="1249" y1="1550" stroke="#191928" x1="1247" y2="1552"/>
 <line x2="1249" y1="1552" stroke="#191928" x1="1247" y2="1553"/>
 <line x2="1249" y1="1553" stroke="#191928" x1="1247" y2="1554"/>
 <line x2="1247" y1="1553" stroke="#191928" x1="1249" y2="1554"/>
 <line x2="1247" y1="1554" stroke="#191928" x1="1249" y2="1553"/>
 <line x2="1245" y1="1554" stroke="#191928" x1="1247" y2="1553"/>
 <line x2="1245" y1="1553" stroke="#191928" x1="1247" y2="1551"/>
 <line x2="1242" y1="1553" stroke="#191928" x1="1245" y2="1551"/>
 <line x2="1242" y1="1551" stroke="#191928" x1="1245" y2="1548"/>
 <line x2="1237" y1="1551" stroke="#191928" x1="1242" y2="1548"/>
 <line x2="1237" y1="1548" stroke="#191928" x1="1242" y2="1545"/>
 <line x2="1237" y1="1548" stroke="#191928" x1="1242" y2="1545"/>
 <line x2="1237" y1="1548" stroke="#191928" x1="1242" y2="1545"/>
 <line x2="1237" y1="1548" stroke="#191928" x1="1242" y2="1545"/>
 <line x2="1237" y1="1548" stroke="#191928" x1="1242" y2="1545"/>
 <line x2="1608" y1="1548" stroke="#191928" x1="1237" y2="1545"/>
 <line x2="1608" y1="1545" stroke="#191928" x1="1237" y2="1932"/>
</svg>
